<svg xmlns="http://www.w3.org/2000/svg" viewBox="0 0 3410.98 1929.82"><defs><style>.cls-1,.cls-10,.cls-11,.cls-14,.cls-17,.cls-19,.cls-2,.cls-20,.cls-21,.cls-23,.cls-24,.cls-25,.cls-27,.cls-28,.cls-29,.cls-3,.cls-31,.cls-32,.cls-34,.cls-35,.cls-36,.cls-37,.cls-39,.cls-40,.cls-44,.cls-45,.cls-46,.cls-49,.cls-7,.cls-8,.cls-9{fill:#1d1d1b;}.cls-2,.cls-3{font-size:6px;}.cls-2,.cls-36,.cls-44,.cls-9{font-family:HelveticaNeue-Thin, Helvetica Neue;}.cls-10,.cls-14,.cls-18,.cls-2,.cls-36,.cls-38,.cls-39,.cls-44,.cls-45,.cls-8,.cls-9{font-weight:200;}.cls-2,.cls-3,.cls-38,.cls-39{letter-spacing:0.05em;}.cls-22,.cls-24,.cls-3,.cls-30,.cls-33,.cls-40,.cls-47,.cls-50{font-family:HelveticaNeue-Light, Helvetica Neue;}.cls-11,.cls-17,.cls-22,.cls-24,.cls-3,.cls-30,.cls-33,.cls-37,.cls-40,.cls-47,.cls-50,.cls-7{font-weight:300;}.cls-4{letter-spacing:0.03em;}.cls-5{letter-spacing:0.06em;}.cls-6{letter-spacing:0.05em;}.cls-7,.cls-8{font-size:17px;letter-spacing:0.05em;}.cls-11,.cls-17,.cls-37,.cls-7{font-family:NeueHaasDisplay-Light, Neue Haas Grotesk Display Pro;}.cls-10,.cls-14,.cls-18,.cls-8{font-family:NeueHaasDisplay-XXThin, Neue Haas Grotesk Display Pro;}.cls-11,.cls-14,.cls-9{font-size:10px;letter-spacing:0.05em;}.cls-10,.cls-22,.cls-24,.cls-26,.cls-28,.cls-36{font-size:8px;}.cls-10,.cls-36{letter-spacing:0.05em;}.cls-12{letter-spacing:0.03em;}.cls-13{letter-spacing:0.06em;}.cls-15{fill:#999632;}.cls-16,.cls-48{fill:none;stroke-miterlimit:10;}.cls-16{stroke:#878787;stroke-width:0.1px;}.cls-17,.cls-20,.cls-29,.cls-31,.cls-34,.cls-35{font-size:19.6px;}.cls-17,.cls-29,.cls-34,.cls-35{letter-spacing:0.05em;}.cls-19{font-size:26px;letter-spacing:0em;}.cls-19,.cls-29,.cls-31{font-family:HelveticaNeue-Bold, Helvetica Neue;}.cls-19,.cls-29,.cls-31,.cls-34,.cls-35{font-weight:700;}.cls-20,.cls-25,.cls-27{font-family:HelveticaNeue-Medium, Helvetica Neue;font-weight:500;}.cls-20,.cls-31{letter-spacing:0em;}.cls-21,.cls-25,.cls-37,.cls-45{font-size:11px;}.cls-21,.cls-23,.cls-26,.cls-28,.cls-32,.cls-46,.cls-49{font-family:HelveticaNeue, Helvetica Neue;}.cls-21,.cls-25{letter-spacing:0em;}.cls-22,.cls-26,.cls-28{letter-spacing:-0.01em;}.cls-23,.cls-27,.cls-38,.cls-39{font-size:9px;}.cls-23,.cls-27{letter-spacing:0em;}.cls-24{letter-spacing:0.01em;}.cls-26{font-weight:400;}.cls-32,.cls-33{font-size:22px;}.cls-32{letter-spacing:0.03em;}.cls-33,.cls-47,.cls-50{fill:#5f5f5e;}.cls-33{letter-spacing:0.05em;}.cls-34{font-family:NeueHaasDisplay-Bold, Neue Haas Grotesk Display Pro;}.cls-35{font-family:Helvetica-Bold, Helvetica;}.cls-37,.cls-45{letter-spacing:0.05em;}.cls-38,.cls-39,.cls-45{font-family:NeueHaasDisplay-Thin, Neue Haas Grotesk Display Pro;}.cls-40,.cls-44{font-size:7px;letter-spacing:0.05em;}.cls-41{letter-spacing:0.03em;}.cls-42{letter-spacing:0.06em;}.cls-43{letter-spacing:0.05em;}.cls-46,.cls-47{font-size:113.35px;}.cls-46{letter-spacing:0.03em;}.cls-47{letter-spacing:0.05em;}.cls-48{stroke:#1d1d1b;}.cls-49,.cls-50{font-size:43.1px;}.cls-49{letter-spacing:0.03em;}.cls-50{letter-spacing:0.05em;}</style></defs><g id="Livello_3" data-name="Livello 3"><circle class="cls-1" cx="2522.44" cy="188.42" r="15.58"/></g><g id="Livello_1" data-name="Livello 1"><text class="cls-2" transform="translate(2118.3 525.94)">Circonvallazione Maroncelli 1<tspan x="37.1" y="8">37123 - Verona</tspan></text><text class="cls-2" transform="translate(2131.56 547.02)">info@moreassociati.com</text><text class="cls-2" transform="translate(2131.14 554.98)">www.moreassociati.com</text><text class="cls-3" transform="translate(1990.44 526.24)">a<tspan class="cls-4" x="3.44" y="0">r</tspan><tspan class="cls-5" x="5.51" y="0">ch.</tspan><tspan class="cls-6" x="14.5" y="0"> </tspan><tspan class="cls-5" x="16.49" y="0">Marta Bazzotti</tspan></text><text class="cls-3" transform="translate(1990.44 546.14)">a<tspan class="cls-4" x="3.44" y="0">r</tspan><tspan class="cls-5" x="5.51" y="0">ch.</tspan><tspan class="cls-6" x="14.5" y="0"> </tspan><tspan class="cls-5" x="16.49" y="0">Marco Busetti</tspan></text><text class="cls-7" transform="translate(2016.66 291.18)">more</text><text class="cls-8" transform="translate(1990.34 304.59)">associati</text><text class="cls-9" transform="translate(2134.3 375.42)">studio di <tspan x="0" y="8.26">architettura</tspan></text><text class="cls-2" transform="translate(1990.44 533.52)">340 6107285</text><text class="cls-2" transform="translate(1990.44 554.1)">329 0611152</text><text class="cls-10" transform="translate(1776.41 512.05)">Circonvallazione Maroncelli 1<tspan x="17.2" y="8">San Zeno - Verona</tspan></text><text class="cls-10" transform="translate(1783.07 544.31)">info@moreassociati.com</text><text class="cls-11" transform="translate(1781.61 451.78)">a<tspan class="cls-12" x="5.53" y="0">r</tspan><tspan class="cls-13" x="8.91" y="0">ch.</tspan><tspan class="cls-6" x="22.12" y="0"> </tspan><tspan class="cls-13" x="24.16" y="0">Marta Bazzotti</tspan></text><text class="cls-11" transform="translate(1783.03 478.32)">a<tspan class="cls-12" x="5.53" y="0">r</tspan><tspan class="cls-13" x="8.91" y="0">ch.</tspan><tspan class="cls-6" x="22.12" y="0"> </tspan><tspan class="cls-13" x="24.16" y="0">Marco Busetti</tspan></text><text class="cls-14" transform="translate(1796.81 461.76)">340 6107285</text><text class="cls-14" transform="translate(1799.56 488.29)">329 0611152</text><path class="cls-1" d="M1375.32,155.91" transform="translate(838.34 252.82)"/><path class="cls-1" d="M1137.21,0" transform="translate(838.34 252.82)"/><path class="cls-1" d="M1137.21,155.91" transform="translate(838.34 252.82)"/><path class="cls-1" d="M1375.32,0" transform="translate(838.34 252.82)"/><path class="cls-1" d="M1256.27,155.91" transform="translate(838.34 252.82)"/><path class="cls-1" d="M1256.27,0" transform="translate(838.34 252.82)"/><path class="cls-1" d="M1126.15,127.34" transform="translate(838.34 252.82)"/><polygon class="cls-1" points="2555.43 217.46 2550.33 217.46 2557.98 188.41 2563.08 188.41 2555.43 217.46"/><polygon class="cls-1" points="2565.63 217.46 2560.53 217.46 2568.18 188.41 2573.28 188.41 2565.63 217.46"/><polygon class="cls-1" points="2576.13 217.46 2571.03 217.46 2578.68 188.41 2583.78 188.41 2576.13 217.46"/><polygon class="cls-15" points="2510.97 204.84 2505.87 204.84 2514.39 171.99 2519.49 171.99 2510.97 204.84"/><polygon class="cls-15" points="2521.16 204.84 2516.07 204.84 2524.59 171.99 2529.69 171.99 2521.16 204.84"/><polygon class="cls-15" points="2531.67 204.84 2526.57 204.84 2535.09 171.99 2540.19 171.99 2531.67 204.84"/><path class="cls-1" d="M1767.65-40.43a15.5,15.5,0,0,0,4.39,2.71l7.75-29.87a14.75,14.75,0,0,0-1.89-.13,15.22,15.22,0,0,0-3.26.35Z" transform="translate(838.34 252.82)"/><path class="cls-1" d="M1768.88-64.83a15.57,15.57,0,0,0-6.56,12.69,15.46,15.46,0,0,0,1.53,6.69Z" transform="translate(838.34 252.82)"/><path class="cls-1" d="M1788.41-40.67a15.52,15.52,0,0,0,5.07-11.47,15.72,15.72,0,0,0-.81-4.93Z" transform="translate(838.34 252.82)"/><path class="cls-1" d="M1789.1-63a15.71,15.71,0,0,0-4.56-3.26l-7.68,29.6c.34,0,.69,0,1,0a15.69,15.69,0,0,0,4.52-.67Z" transform="translate(838.34 252.82)"/><path class="cls-1" d="M2234.84-131.54c0,9.33-4.06,17.46-13.4,17.46S2201-122.21,2201-131.54s11.08-16.35,20.41-16.35S2234.84-140.88,2234.84-131.54Z" transform="translate(838.34 252.82)"/><rect class="cls-16" x="1975.55" y="252.82" width="238.11" height="155.91"/><rect class="cls-16" x="2801.26" y="252.82" width="238.11" height="155.91"/><rect class="cls-16" x="2801.26" y="417.77" width="238.11" height="155.91"/><rect class="cls-16" x="1975.55" y="417.77" width="238.11" height="155.91"/><text class="cls-17" transform="translate(1765.49 336.71)">more<tspan class="cls-18" x="45.96" y="0">associati</tspan></text><text class="cls-17" transform="translate(2033.74 336.71)">more<tspan class="cls-18" x="45.96" y="0">associati</tspan></text><text class="cls-17" transform="translate(2033.74 501.65)">more<tspan class="cls-18" x="45.96" y="0">associati</tspan></text><path class="cls-1" d="M1908.19,119c0,9.34-4.06,17.47-13.4,17.47s-20.41-8.13-20.41-17.47,11.08-16.34,20.41-16.34S1908.19,109.62,1908.19,119Z" transform="translate(838.34 252.82)"/><rect class="cls-16" x="2523.25" y="252.82" width="238.11" height="155.91"/><text class="cls-19" transform="translate(2536.08 291.15) scale(1 1.05)">MORE</text><text class="cls-20" transform="translate(2537.88 309.76) scale(1 1.05)">associati</text><text class="cls-21" transform="translate(2816.14 445.07) scale(1 1.05)">Marta <tspan x="0" y="10.98">Bazzotti</tspan><tspan class="cls-22"><tspan x="0" y="21.97">architetto</tspan><tspan x="0" y="32.95">+ 39 340 6107285</tspan></tspan></text><text class="cls-21" transform="translate(2816.14 519.65) scale(1 1.05)">Marco<tspan x="0" y="10.98">Busetti</tspan><tspan class="cls-22"><tspan x="0" y="21.97">architetto</tspan><tspan x="0" y="32.95">+ 39 329 0611152</tspan></tspan></text><text class="cls-23" transform="translate(2980.8 444.04) scale(1 1.05)">STUDIO DI<tspan x="-22.51" y="11.99">ARCHITETTURA</tspan></text><text class="cls-24" transform="translate(2943.65 524.68) scale(1 1.05)">Circonv. Maroncelli 1/B<tspan x="31.74" y="9.35">37123 Verona</tspan><tspan x="6.1" y="18.7">www.moreasaociati.it</tspan><tspan x="7.68" y="28.05">info@moreassociati.it</tspan></text><text class="cls-25" transform="translate(2538.14 445.07) scale(1 1.05)">Marta <tspan x="0" y="10.98">Bazzotti</tspan><tspan class="cls-26"><tspan x="0" y="21.97">architetto</tspan><tspan x="0" y="32.95">+ 39 340 6107285</tspan></tspan></text><text class="cls-25" transform="translate(2538.14 519.65) scale(1 1.05)">Marco<tspan x="0" y="10.98">Busetti</tspan><tspan class="cls-26"><tspan x="0" y="21.97">architetto</tspan><tspan x="0" y="32.95">+ 39 329 0611152</tspan></tspan></text><text class="cls-27" transform="translate(2701.84 444.04) scale(1 1.05)">STUDIO DI<tspan x="-23.21" y="11.99">ARCHITETTURA</tspan></text><text class="cls-28" transform="translate(2664.52 527.37) scale(1 1.05)">Circonv. Maroncelli 1/b<tspan x="32.88" y="8.5">37123 Verona</tspan><tspan x="5.69" y="16.99">www.moreasaociati.it</tspan><tspan x="6.86" y="25.49">info@moreassociati.it</tspan></text><text class="cls-17" transform="translate(3128.13 336.71)">more<tspan class="cls-18" x="45.96" y="0">associati</tspan></text><rect class="cls-16" x="3069.95" y="252.82" width="238.11" height="155.91"/><text class="cls-17" transform="translate(2301.1 336.71)">more<tspan class="cls-18" x="45.96" y="0">associati</tspan></text><rect class="cls-16" x="2242.92" y="252.82" width="238.11" height="155.91"/><text class="cls-29" transform="translate(2852.53 127.02)">more<tspan class="cls-30" x="52.84" y="0">associati</tspan></text><text class="cls-31" transform="translate(2859.47 150.72)">more<tspan class="cls-30" x="48.22" y="0">associati</tspan></text><text class="cls-32" transform="translate(2849.09 337.71)">more</text><text class="cls-33" transform="translate(2902.61 337.71)">associati</text><text class="cls-34" transform="translate(2743.77 16.81)">MORE</text><text class="cls-35" transform="translate(2742.6 42.46)">MORE</text><text class="cls-36" transform="translate(3209.08 527.37)">Circonv.Maroncelli 1/B<tspan x="32.02" y="8.92">37123 Verona</tspan><tspan x="5.59" y="17.84">www.moreassociati.it</tspan><tspan x="6.16" y="26.76">info@moreassociati.it</tspan></text><rect class="cls-16" x="3069.95" y="417.77" width="238.11" height="155.91"/><text class="cls-37" transform="translate(3084.32 444.42)">Marta<tspan x="0" y="13.36">Bazzotti</tspan><tspan class="cls-38"><tspan x="0" y="24.33">architetto</tspan><tspan x="0" y="35.29">+39 340 6107285</tspan></tspan></text><text class="cls-39" transform="translate(3250.59 443.76)">STUDIO DI<tspan x="-24.75" y="13.21">ARCHITETTURA</tspan></text><text class="cls-37" transform="translate(3084.32 518.2)">Marco<tspan x="0" y="13.36">Busetti</tspan><tspan class="cls-38"><tspan x="0" y="24.33">architetto</tspan><tspan x="0" y="35.29">+39 329 0611152</tspan></tspan></text><text class="cls-2" transform="translate(2385.66 525.94)">Circonvallazione Maroncelli 1<tspan x="28.58" y="8">San Zeno - Verona</tspan></text><text class="cls-2" transform="translate(2398.93 554.09)">info@moreassociati.com</text><text class="cls-2" transform="translate(2398.5 544.61)">www.moreassociati.com</text><text class="cls-40" transform="translate(2263.05 526.41)">a<tspan class="cls-41" x="4.01" y="0">r</tspan><tspan class="cls-42" x="6.43" y="0">ch.</tspan><tspan x="16.92" y="0"> </tspan><tspan class="cls-43" x="19.24" y="0">Marta Bazzotti</tspan></text><text class="cls-40" transform="translate(2263.05 546.31)">a<tspan class="cls-41" x="4.01" y="0">r</tspan><tspan class="cls-42" x="6.43" y="0">ch.</tspan><tspan x="16.92" y="0"> </tspan><tspan class="cls-43" x="19.24" y="0">Marco Busetti</tspan></text><text class="cls-44" transform="translate(2263.05 533.69)">340 6107285</text><text class="cls-44" transform="translate(2263.05 554.27)">329 0611152</text><rect class="cls-16" x="2242.92" y="417.77" width="238.11" height="155.91"/><text class="cls-45" transform="translate(2266.1 444.42)">architetti</text><rect class="cls-16" x="2900.67" y="784.41" width="240.94" height="155.91"/><text class="cls-32" transform="translate(2949.93 870.04)">more</text><text class="cls-33" transform="translate(3003.44 870.04)">associati</text><rect class="cls-16" x="2631.36" y="784.41" width="240.94" height="155.91"/><text class="cls-32" transform="translate(2680.61 870.04)">more</text><text class="cls-33" transform="translate(2734.13 870.04)">associati</text><rect class="cls-16" x="3169.98" y="784.41" width="240.94" height="155.91"/><text class="cls-32" transform="translate(3219.24 870.04)">more</text><text class="cls-33" transform="translate(3272.75 870.04)">associati</text><rect class="cls-16" x="2631.36" y="968.64" width="240.94" height="155.91"/><text class="cls-32" transform="translate(2680.61 1054.27)">more</text><text class="cls-33" transform="translate(2734.13 1054.27)">associati</text><rect class="cls-16" x="2900.67" y="968.64" width="240.94" height="155.91"/><text class="cls-32" transform="translate(2949.93 1054.27)">more</text><text class="cls-33" transform="translate(3003.44 1054.27)">associati</text><rect class="cls-16" x="3169.98" y="968.64" width="240.94" height="155.91"/><text class="cls-32" transform="translate(3219.24 1054.27)">more</text><text class="cls-33" transform="translate(3272.75 1054.27)">associati</text><rect class="cls-16" x="2631.36" y="1152.87" width="240.94" height="155.91"/><text class="cls-32" transform="translate(2680.61 1238.5)">more</text><text class="cls-33" transform="translate(2734.13 1238.5)">associati</text><rect class="cls-16" x="2900.67" y="1152.87" width="240.94" height="155.91"/><text class="cls-32" transform="translate(2949.93 1238.5)">more</text><text class="cls-33" transform="translate(3003.44 1238.5)">associati</text><rect class="cls-16" x="3169.98" y="1152.87" width="240.94" height="155.91"/><text class="cls-32" transform="translate(3219.24 1238.5)">more</text><text class="cls-33" transform="translate(3272.75 1238.5)">associati</text><rect class="cls-16" x="1710.82" y="784.41" width="240.94" height="155.91"/><text class="cls-32" transform="translate(1760.08 870.04)">more</text><text class="cls-33" transform="translate(1813.59 870.04)">associati</text><text class="cls-32" transform="translate(1398.94 870.04)">more</text><text class="cls-33" transform="translate(1452.45 870.04)">associati</text><text class="cls-46" transform="translate(955.52 702.24)">more</text><text class="cls-47" transform="translate(859.4 793.41)">associati</text><rect class="cls-16" x="1980.14" y="784.41" width="240.94" height="155.91"/><text class="cls-32" transform="translate(2029.39 870.04)">more</text><text class="cls-33" transform="translate(2082.9 870.04)">associati</text><rect class="cls-16" x="2249.45" y="784.41" width="240.94" height="155.91"/><text class="cls-32" transform="translate(2298.7 870.04)">more</text><text class="cls-33" transform="translate(2352.21 870.04)">associati</text><rect class="cls-16" x="1710.82" y="968.64" width="240.94" height="155.91"/><text class="cls-32" transform="translate(1760.08 1054.27)">more</text><text class="cls-33" transform="translate(1813.59 1054.27)">associati</text><rect class="cls-16" x="1980.14" y="968.64" width="240.94" height="155.91"/><text class="cls-32" transform="translate(2029.39 1054.27)">more</text><text class="cls-33" transform="translate(2082.9 1054.27)">associati</text><rect class="cls-16" x="2249.45" y="968.64" width="240.94" height="155.91"/><text class="cls-32" transform="translate(2298.7 1054.27)">more</text><text class="cls-33" transform="translate(2352.21 1054.27)">associati</text><rect class="cls-16" x="1710.82" y="1152.87" width="240.94" height="155.91"/><text class="cls-32" transform="translate(1760.08 1238.5)">more</text><text class="cls-33" transform="translate(1813.59 1238.5)">associati</text><rect class="cls-16" x="1980.14" y="1152.87" width="240.94" height="155.91"/><text class="cls-32" transform="translate(2029.39 1238.5)">more</text><text class="cls-33" transform="translate(2082.9 1238.5)">associati</text><rect class="cls-16" x="2249.45" y="1152.87" width="240.94" height="155.91"/><text class="cls-32" transform="translate(2298.7 1238.5)">more</text><text class="cls-33" transform="translate(2352.21 1238.5)">associati</text><rect class="cls-16" x="2900.67" y="1405.41" width="240.94" height="155.91"/><text class="cls-21" transform="translate(2916.97 1432.72) scale(1 1.05)">Marta <tspan x="0" y="10.98">Bazzotti</tspan><tspan class="cls-22"><tspan x="0" y="21.97">architetto</tspan><tspan x="0" y="32.95">+ 39 340 6107285</tspan></tspan></text><text class="cls-21" transform="translate(2916.97 1507.29) scale(1 1.05)">Marco<tspan x="0" y="10.98">Busetti</tspan><tspan class="cls-22"><tspan x="0" y="21.97">architetto</tspan><tspan x="0" y="32.95">+ 39 329 0611152</tspan></tspan></text><text class="cls-23" transform="translate(3081.63 1431.68) scale(1 1.05)">STUDIO DI<tspan x="-22.51" y="11.99">ARCHITETTURA</tspan></text><text class="cls-24" transform="translate(3044.48 1512.33) scale(1 1.05)">Circonv. Maroncelli 1/B<tspan x="31.74" y="9.35">37123 Verona</tspan><tspan x="6.1" y="18.7">www.moreasaociati.it</tspan><tspan x="7.68" y="28.05">info@moreassociati.it</tspan></text><rect class="cls-16" x="2631.36" y="1405.41" width="240.94" height="155.91"/><text class="cls-21" transform="translate(2647.66 1432.72) scale(1 1.05)">Marta <tspan x="0" y="10.98">Bazzotti</tspan><tspan class="cls-22"><tspan x="0" y="21.97">architetto</tspan><tspan x="0" y="32.95">+ 39 340 6107285</tspan></tspan></text><text class="cls-21" transform="translate(2647.66 1507.29) scale(1 1.05)">Marco<tspan x="0" y="10.98">Busetti</tspan><tspan class="cls-22"><tspan x="0" y="21.97">architetto</tspan><tspan x="0" y="32.95">+ 39 329 0611152</tspan></tspan></text><text class="cls-23" transform="translate(2812.32 1431.68) scale(1 1.05)">STUDIO DI<tspan x="-22.51" y="11.99">ARCHITETTURA</tspan></text><text class="cls-24" transform="translate(2775.17 1512.33) scale(1 1.05)">Circonv. Maroncelli 1/B<tspan x="31.74" y="9.35">37123 Verona</tspan><tspan x="6.1" y="18.7">www.moreasaociati.it</tspan><tspan x="7.68" y="28.05">info@moreassociati.it</tspan></text><rect class="cls-16" x="3169.98" y="1405.41" width="240.94" height="155.91"/><text class="cls-21" transform="translate(3186.28 1432.72) scale(1 1.05)">Marta <tspan x="0" y="10.98">Bazzotti</tspan><tspan class="cls-22"><tspan x="0" y="21.97">architetto</tspan><tspan x="0" y="32.95">+ 39 340 6107285</tspan></tspan></text><text class="cls-21" transform="translate(3186.28 1507.29) scale(1 1.05)">Marco<tspan x="0" y="10.98">Busetti</tspan><tspan class="cls-22"><tspan x="0" y="21.97">architetto</tspan><tspan x="0" y="32.95">+ 39 329 0611152</tspan></tspan></text><text class="cls-23" transform="translate(3350.94 1431.68) scale(1 1.05)">STUDIO DI<tspan x="-22.51" y="11.99">ARCHITETTURA</tspan></text><text class="cls-24" transform="translate(3313.79 1512.33) scale(1 1.05)">Circonv. Maroncelli 1/B<tspan x="31.74" y="9.35">37123 Verona</tspan><tspan x="6.1" y="18.7">www.moreasaociati.it</tspan><tspan x="7.68" y="28.05">info@moreassociati.it</tspan></text><rect class="cls-16" x="2631.36" y="1589.63" width="240.94" height="155.91"/><text class="cls-21" transform="translate(2647.66 1616.94) scale(1 1.05)">Marta <tspan x="0" y="10.98">Bazzotti</tspan><tspan class="cls-22"><tspan x="0" y="21.97">architetto</tspan><tspan x="0" y="32.95">+ 39 340 6107285</tspan></tspan></text><text class="cls-21" transform="translate(2647.66 1691.52) scale(1 1.05)">Marco<tspan x="0" y="10.98">Busetti</tspan><tspan class="cls-22"><tspan x="0" y="21.97">architetto</tspan><tspan x="0" y="32.95">+ 39 329 0611152</tspan></tspan></text><text class="cls-23" transform="translate(2812.32 1615.9) scale(1 1.05)">STUDIO DI<tspan x="-22.51" y="11.99">ARCHITETTURA</tspan></text><text class="cls-24" transform="translate(2775.17 1696.55) scale(1 1.05)">Circonv. Maroncelli 1/B<tspan x="31.74" y="9.35">37123 Verona</tspan><tspan x="6.1" y="18.7">www.moreasaociati.it</tspan><tspan x="7.68" y="28.05">info@moreassociati.it</tspan></text><rect class="cls-16" x="2900.67" y="1589.63" width="240.94" height="155.91"/><text class="cls-21" transform="translate(2916.97 1616.94) scale(1 1.05)">Marta <tspan x="0" y="10.98">Bazzotti</tspan><tspan class="cls-22"><tspan x="0" y="21.97">architetto</tspan><tspan x="0" y="32.95">+ 39 340 6107285</tspan></tspan></text><text class="cls-21" transform="translate(2916.97 1691.52) scale(1 1.05)">Marco<tspan x="0" y="10.98">Busetti</tspan><tspan class="cls-22"><tspan x="0" y="21.97">architetto</tspan><tspan x="0" y="32.95">+ 39 329 0611152</tspan></tspan></text><text class="cls-23" transform="translate(3081.63 1615.9) scale(1 1.05)">STUDIO DI<tspan x="-22.51" y="11.99">ARCHITETTURA</tspan></text><text class="cls-24" transform="translate(3044.48 1696.55) scale(1 1.05)">Circonv. Maroncelli 1/B<tspan x="31.74" y="9.35">37123 Verona</tspan><tspan x="6.1" y="18.7">www.moreasaociati.it</tspan><tspan x="7.68" y="28.05">info@moreassociati.it</tspan></text><rect class="cls-16" x="3169.98" y="1589.63" width="240.94" height="155.91"/><text class="cls-21" transform="translate(3186.28 1616.94) scale(1 1.05)">Marta <tspan x="0" y="10.98">Bazzotti</tspan><tspan class="cls-22"><tspan x="0" y="21.97">architetto</tspan><tspan x="0" y="32.95">+ 39 340 6107285</tspan></tspan></text><text class="cls-21" transform="translate(3186.28 1691.52) scale(1 1.05)">Marco<tspan x="0" y="10.98">Busetti</tspan><tspan class="cls-22"><tspan x="0" y="21.97">architetto</tspan><tspan x="0" y="32.95">+ 39 329 0611152</tspan></tspan></text><text class="cls-23" transform="translate(3350.94 1615.9) scale(1 1.05)">STUDIO DI<tspan x="-22.51" y="11.99">ARCHITETTURA</tspan></text><text class="cls-24" transform="translate(3313.79 1696.55) scale(1 1.05)">Circonv. Maroncelli 1/B<tspan x="31.74" y="9.35">37123 Verona</tspan><tspan x="6.1" y="18.7">www.moreasaociati.it</tspan><tspan x="7.68" y="28.05">info@moreassociati.it</tspan></text><rect class="cls-16" x="2631.36" y="1773.86" width="240.94" height="155.91"/><text class="cls-21" transform="translate(2647.66 1801.17) scale(1 1.05)">Marta <tspan x="0" y="10.98">Bazzotti</tspan><tspan class="cls-22"><tspan x="0" y="21.97">architetto</tspan><tspan x="0" y="32.95">+ 39 340 6107285</tspan></tspan></text><text class="cls-21" transform="translate(2647.66 1875.74) scale(1 1.05)">Marco<tspan x="0" y="10.98">Busetti</tspan><tspan class="cls-22"><tspan x="0" y="21.97">architetto</tspan><tspan x="0" y="32.95">+ 39 329 0611152</tspan></tspan></text><text class="cls-23" transform="translate(2812.32 1800.13) scale(1 1.05)">STUDIO DI<tspan x="-22.51" y="11.99">ARCHITETTURA</tspan></text><text class="cls-24" transform="translate(2775.17 1880.78) scale(1 1.05)">Circonv. Maroncelli 1/B<tspan x="31.74" y="9.35">37123 Verona</tspan><tspan x="6.1" y="18.7">www.moreasaociati.it</tspan><tspan x="7.68" y="28.05">info@moreassociati.it</tspan></text><rect class="cls-16" x="2900.67" y="1773.86" width="240.94" height="155.91"/><text class="cls-21" transform="translate(2916.97 1801.17) scale(1 1.05)">Marta <tspan x="0" y="10.98">Bazzotti</tspan><tspan class="cls-22"><tspan x="0" y="21.97">architetto</tspan><tspan x="0" y="32.95">+ 39 340 6107285</tspan></tspan></text><text class="cls-21" transform="translate(2916.97 1875.74) scale(1 1.05)">Marco<tspan x="0" y="10.98">Busetti</tspan><tspan class="cls-22"><tspan x="0" y="21.97">architetto</tspan><tspan x="0" y="32.95">+ 39 329 0611152</tspan></tspan></text><text class="cls-23" transform="translate(3081.63 1800.13) scale(1 1.05)">STUDIO DI<tspan x="-22.51" y="11.99">ARCHITETTURA</tspan></text><text class="cls-24" transform="translate(3044.48 1880.78) scale(1 1.05)">Circonv. Maroncelli 1/B<tspan x="31.74" y="9.35">37123 Verona</tspan><tspan x="6.1" y="18.7">www.moreasaociati.it</tspan><tspan x="7.68" y="28.05">info@moreassociati.it</tspan></text><rect class="cls-16" x="3169.98" y="1773.86" width="240.94" height="155.91"/><text class="cls-21" transform="translate(3186.28 1801.17) scale(1 1.05)">Marta <tspan x="0" y="10.98">Bazzotti</tspan><tspan class="cls-22"><tspan x="0" y="21.97">architetto</tspan><tspan x="0" y="32.95">+ 39 340 6107285</tspan></tspan></text><text class="cls-21" transform="translate(3186.28 1875.74) scale(1 1.05)">Marco<tspan x="0" y="10.98">Busetti</tspan><tspan class="cls-22"><tspan x="0" y="21.97">architetto</tspan><tspan x="0" y="32.95">+ 39 329 0611152</tspan></tspan></text><text class="cls-23" transform="translate(3350.94 1800.13) scale(1 1.05)">STUDIO DI<tspan x="-22.51" y="11.99">ARCHITETTURA</tspan></text><text class="cls-24" transform="translate(3313.79 1880.78) scale(1 1.05)">Circonv. Maroncelli 1/B<tspan x="31.74" y="9.35">37123 Verona</tspan><tspan x="6.1" y="18.7">www.moreasaociati.it</tspan><tspan x="7.68" y="28.05">info@moreassociati.it</tspan></text><rect class="cls-16" x="1710.89" y="1405.41" width="240.94" height="155.91"/><text class="cls-21" transform="translate(1727.19 1432.72) scale(1 1.05)">Marta <tspan x="0" y="10.98">Bazzotti</tspan><tspan class="cls-22"><tspan x="0" y="21.97">architetto</tspan><tspan x="0" y="32.95">+ 39 340 6107285</tspan></tspan></text><text class="cls-21" transform="translate(1727.19 1507.29) scale(1 1.05)">Marco<tspan x="0" y="10.98">Busetti</tspan><tspan class="cls-22"><tspan x="0" y="21.97">architetto</tspan><tspan x="0" y="32.95">+ 39 329 0611152</tspan></tspan></text><text class="cls-23" transform="translate(1891.84 1431.68) scale(1 1.05)">STUDIO DI<tspan x="-22.51" y="11.99">ARCHITETTURA</tspan></text><text class="cls-24" transform="translate(1854.7 1512.33) scale(1 1.05)">Circonv. Maroncelli 1/B<tspan x="31.74" y="9.35">37123 Verona</tspan><tspan x="6.1" y="18.7">www.moreasaociati.it</tspan><tspan x="7.68" y="28.05">info@moreassociati.it</tspan></text><rect class="cls-16" x="1980.2" y="1405.41" width="240.94" height="155.91"/><text class="cls-21" transform="translate(1996.5 1432.72) scale(1 1.05)">Marta <tspan x="0" y="10.98">Bazzotti</tspan><tspan class="cls-22"><tspan x="0" y="21.97">architetto</tspan><tspan x="0" y="32.95">+ 39 340 6107285</tspan></tspan></text><text class="cls-21" transform="translate(1996.5 1507.29) scale(1 1.05)">Marco<tspan x="0" y="10.98">Busetti</tspan><tspan class="cls-22"><tspan x="0" y="21.97">architetto</tspan><tspan x="0" y="32.95">+ 39 329 0611152</tspan></tspan></text><text class="cls-23" transform="translate(2161.16 1431.68) scale(1 1.05)">STUDIO DI<tspan x="-22.51" y="11.99">ARCHITETTURA</tspan></text><text class="cls-24" transform="translate(2124.01 1512.33) scale(1 1.05)">Circonv. Maroncelli 1/B<tspan x="31.74" y="9.35">37123 Verona</tspan><tspan x="6.1" y="18.7">www.moreasaociati.it</tspan><tspan x="7.68" y="28.05">info@moreassociati.it</tspan></text><rect class="cls-16" x="2249.51" y="1405.41" width="240.94" height="155.91"/><text class="cls-21" transform="translate(2265.81 1432.72) scale(1 1.05)">Marta <tspan x="0" y="10.98">Bazzotti</tspan><tspan class="cls-22"><tspan x="0" y="21.97">architetto</tspan><tspan x="0" y="32.95">+ 39 340 6107285</tspan></tspan></text><text class="cls-21" transform="translate(2265.81 1507.29) scale(1 1.05)">Marco<tspan x="0" y="10.98">Busetti</tspan><tspan class="cls-22"><tspan x="0" y="21.97">architetto</tspan><tspan x="0" y="32.95">+ 39 329 0611152</tspan></tspan></text><text class="cls-23" transform="translate(2430.47 1431.68) scale(1 1.05)">STUDIO DI<tspan x="-22.51" y="11.99">ARCHITETTURA</tspan></text><text class="cls-24" transform="translate(2393.32 1512.33) scale(1 1.05)">Circonv. Maroncelli 1/B<tspan x="31.74" y="9.35">37123 Verona</tspan><tspan x="6.1" y="18.7">www.moreasaociati.it</tspan><tspan x="7.68" y="28.05">info@moreassociati.it</tspan></text><rect class="cls-16" x="1710.89" y="1589.63" width="240.94" height="155.91"/><text class="cls-21" transform="translate(1727.19 1616.94) scale(1 1.05)">Marta <tspan x="0" y="10.98">Bazzotti</tspan><tspan class="cls-22"><tspan x="0" y="21.97">architetto</tspan><tspan x="0" y="32.95">+ 39 340 6107285</tspan></tspan></text><text class="cls-21" transform="translate(1727.19 1691.52) scale(1 1.05)">Marco<tspan x="0" y="10.98">Busetti</tspan><tspan class="cls-22"><tspan x="0" y="21.97">architetto</tspan><tspan x="0" y="32.95">+ 39 329 0611152</tspan></tspan></text><text class="cls-23" transform="translate(1891.84 1615.9) scale(1 1.05)">STUDIO DI<tspan x="-22.51" y="11.99">ARCHITETTURA</tspan></text><text class="cls-24" transform="translate(1854.7 1696.55) scale(1 1.05)">Circonv. Maroncelli 1/B<tspan x="31.74" y="9.35">37123 Verona</tspan><tspan x="6.1" y="18.7">www.moreasaociati.it</tspan><tspan x="7.68" y="28.05">info@moreassociati.it</tspan></text><rect class="cls-16" x="1980.2" y="1589.63" width="240.94" height="155.91"/><text class="cls-21" transform="translate(1996.5 1616.94) scale(1 1.05)">Marta <tspan x="0" y="10.98">Bazzotti</tspan><tspan class="cls-22"><tspan x="0" y="21.97">architetto</tspan><tspan x="0" y="32.95">+ 39 340 6107285</tspan></tspan></text><text class="cls-21" transform="translate(1996.5 1691.52) scale(1 1.05)">Marco<tspan x="0" y="10.98">Busetti</tspan><tspan class="cls-22"><tspan x="0" y="21.97">architetto</tspan><tspan x="0" y="32.95">+ 39 329 0611152</tspan></tspan></text><text class="cls-23" transform="translate(2161.16 1615.9) scale(1 1.05)">STUDIO DI<tspan x="-22.51" y="11.99">ARCHITETTURA</tspan></text><text class="cls-24" transform="translate(2124.01 1696.55) scale(1 1.05)">Circonv. Maroncelli 1/B<tspan x="31.74" y="9.35">37123 Verona</tspan><tspan x="6.1" y="18.7">www.moreasaociati.it</tspan><tspan x="7.68" y="28.05">info@moreassociati.it</tspan></text><rect class="cls-16" x="2249.51" y="1589.63" width="240.94" height="155.91"/><text class="cls-21" transform="translate(2265.81 1616.94) scale(1 1.05)">Marta <tspan x="0" y="10.98">Bazzotti</tspan><tspan class="cls-22"><tspan x="0" y="21.97">architetto</tspan><tspan x="0" y="32.95">+ 39 340 6107285</tspan></tspan></text><text class="cls-21" transform="translate(2265.81 1691.52) scale(1 1.05)">Marco<tspan x="0" y="10.98">Busetti</tspan><tspan class="cls-22"><tspan x="0" y="21.97">architetto</tspan><tspan x="0" y="32.95">+ 39 329 0611152</tspan></tspan></text><text class="cls-23" transform="translate(2430.47 1615.9) scale(1 1.05)">STUDIO DI<tspan x="-22.51" y="11.99">ARCHITETTURA</tspan></text><text class="cls-24" transform="translate(2393.32 1696.55) scale(1 1.05)">Circonv. Maroncelli 1/B<tspan x="31.74" y="9.35">37123 Verona</tspan><tspan x="6.1" y="18.7">www.moreasaociati.it</tspan><tspan x="7.68" y="28.05">info@moreassociati.it</tspan></text><rect class="cls-16" x="1710.89" y="1773.86" width="240.94" height="155.91"/><text class="cls-21" transform="translate(1727.19 1801.17) scale(1 1.05)">Marta <tspan x="0" y="10.98">Bazzotti</tspan><tspan class="cls-22"><tspan x="0" y="21.97">architetto</tspan><tspan x="0" y="32.95">+ 39 340 6107285</tspan></tspan></text><text class="cls-21" transform="translate(1727.19 1875.74) scale(1 1.05)">Marco<tspan x="0" y="10.98">Busetti</tspan><tspan class="cls-22"><tspan x="0" y="21.97">architetto</tspan><tspan x="0" y="32.95">+ 39 329 0611152</tspan></tspan></text><text class="cls-23" transform="translate(1891.84 1800.13) scale(1 1.05)">STUDIO DI<tspan x="-22.51" y="11.99">ARCHITETTURA</tspan></text><text class="cls-24" transform="translate(1854.7 1880.78) scale(1 1.05)">Circonv. Maroncelli 1/B<tspan x="31.74" y="9.35">37123 Verona</tspan><tspan x="6.1" y="18.7">www.moreasaociati.it</tspan><tspan x="7.68" y="28.05">info@moreassociati.it</tspan></text><rect class="cls-16" x="1980.2" y="1773.86" width="240.94" height="155.91"/><text class="cls-21" transform="translate(1996.5 1801.17) scale(1 1.05)">Marta <tspan x="0" y="10.98">Bazzotti</tspan><tspan class="cls-22"><tspan x="0" y="21.97">architetto</tspan><tspan x="0" y="32.95">+ 39 340 6107285</tspan></tspan></text><text class="cls-21" transform="translate(1996.5 1875.74) scale(1 1.05)">Marco<tspan x="0" y="10.98">Busetti</tspan><tspan class="cls-22"><tspan x="0" y="21.97">architetto</tspan><tspan x="0" y="32.95">+ 39 329 0611152</tspan></tspan></text><text class="cls-23" transform="translate(2161.16 1800.13) scale(1 1.05)">STUDIO DI<tspan x="-22.51" y="11.99">ARCHITETTURA</tspan></text><text class="cls-24" transform="translate(2124.01 1880.78) scale(1 1.05)">Circonv. Maroncelli 1/B<tspan x="31.74" y="9.35">37123 Verona</tspan><tspan x="6.1" y="18.7">www.moreasaociati.it</tspan><tspan x="7.68" y="28.05">info@moreassociati.it</tspan></text><rect class="cls-16" x="2249.51" y="1773.86" width="240.94" height="155.91"/><text class="cls-21" transform="translate(2265.81 1801.17) scale(1 1.05)">Marta <tspan x="0" y="10.98">Bazzotti</tspan><tspan class="cls-22"><tspan x="0" y="21.97">architetto</tspan><tspan x="0" y="32.95">+ 39 340 6107285</tspan></tspan></text><text class="cls-21" transform="translate(2265.81 1875.74) scale(1 1.05)">Marco<tspan x="0" y="10.98">Busetti</tspan><tspan class="cls-22"><tspan x="0" y="21.97">architetto</tspan><tspan x="0" y="32.95">+ 39 329 0611152</tspan></tspan></text><text class="cls-23" transform="translate(2430.47 1800.13) scale(1 1.05)">STUDIO DI<tspan x="-22.51" y="11.99">ARCHITETTURA</tspan></text><text class="cls-24" transform="translate(2393.32 1880.78) scale(1 1.05)">Circonv. Maroncelli 1/B<tspan x="31.74" y="9.35">37123 Verona</tspan><tspan x="6.1" y="18.7">www.moreasaociati.it</tspan><tspan x="7.68" y="28.05">info@moreassociati.it</tspan></text><line class="cls-48" x1="58.72" y1="458.26" x2="574.3" y2="973.83"/><line class="cls-48" x1="574.3" y1="458.26" x2="58.72" y2="973.83"/><line class="cls-48" x1="194.2" y1="404.13" x2="194.87" y2="404.13"/><line class="cls-48" y1="716.05" x2="716.8" y2="716.05"/><line class="cls-48" x1="316.51" y1="432.73" x2="316.51" y2="1042.63"/><text class="cls-49" transform="translate(1024.3 1310.47)">more</text><text class="cls-50" transform="translate(1128.62 1310.47)">associati</text></g></svg>